{"glyphs":{"0":{"ha":558,"x_min":0,"x_max":0,"o":"m 643 947 b 513 899 643 947 565 927 b 493 887 506 895 500 891 b 348 940 452 951 408 960 b -3 268 190 888 -14 473 b 21 153 0 227 8 188 b -84 2 -19 75 -54 18 b 70 38 2 0 26 8 b 86 52 75 42 80 47 b 354 97 153 -11 251 -16 b 518 830 519 278 547 698 b 643 947 570 884 623 931 z m 122 371 b 347 803 115 503 246 770 b 396 804 369 811 383 812 b 123 364 288 690 198 519 b 122 371 122 366 122 369 z m 333 263 b 182 224 273 197 220 194 b 420 716 245 369 315 565 b 437 739 425 723 431 731 b 333 263 457 660 441 382 z "},"1":{"ha":313,"x_min":0,"x_max":0,"o":"m 266 923 b 150 728 139 826 108 707 b 221 759 193 749 221 759 b -81 -20 221 759 31 523 b 181 62 46 29 164 -31 b 336 788 211 228 292 639 b 266 923 375 920 394 1019 z "},"2":{"ha":733,"x_min":0,"x_max":0,"o":"m 579 239 b 282 180 496 186 390 195 b 283 183 282 181 283 182 b 708 848 375 481 787 565 b 566 946 690 911 617 949 b 363 763 503 943 364 882 b 516 823 363 734 452 848 b 534 683 574 801 572 723 b 272 475 469 616 342 560 b 68 125 186 374 103 254 b 298 3 34 -3 199 -10 b 507 10 372 12 436 1 b 676 322 692 34 664 278 b 579 239 654 301 630 271 z "},"3":{"ha":536,"x_min":0,"x_max":0,"o":"m 392 563 b 481 947 566 676 649 875 b 208 803 362 998 116 769 b 139 529 606 951 331 645 b 155 205 494 593 284 228 b 118 428 25 182 118 428 b -16 310 118 428 44 418 b 166 25 -77 202 -110 -61 b 392 563 441 112 635 559 z "},"4":{"ha":582,"x_min":0,"x_max":0,"o":"m 563 942 b 345 501 524 872 426 687 b 228 618 322 590 261 578 b 328 865 184 671 335 781 b 186 942 320 949 273 970 b 82 523 256 850 -6 628 b 331 470 160 431 227 526 b 231 41 251 282 192 100 b 419 12 262 -6 326 -5 b 626 837 402 267 555 661 b 563 942 695 1008 623 950 z "},"5":{"ha":718,"x_min":0,"x_max":0,"o":"m 377 938 b 192 936 257 937 233 976 b 61 535 121 866 62 596 b 312 517 59 474 233 606 b 245 242 372 449 342 300 b 121 443 63 132 121 443 b -9 282 121 443 39 377 b 161 14 -80 143 28 -50 b 401 246 258 61 366 170 b 388 649 451 358 507 620 b 215 740 268 678 164 629 b 555 848 266 852 484 705 b 642 975 601 940 628 968 b 377 938 605 967 478 939 z m 642 975 b 653 978 649 977 653 978 b 642 975 653 978 650 980 z "},"6":{"ha":538,"x_min":0,"x_max":0,"o":"m 472 1013 b -26 176 359 834 -86 536 b 397 92 22 -111 313 15 b 446 341 466 157 490 256 b 238 479 418 395 313 450 b 398 726 286 575 347 676 b 472 1013 500 827 457 910 z m 285 185 b 156 254 246 149 154 173 b 195 384 157 280 172 328 b 285 185 308 310 333 229 z "},"7":{"ha":638,"x_min":0,"x_max":0,"o":"m 66 795 b 64 791 64 792 64 791 b 66 795 64 791 64 792 z m 537 843 b 486 950 616 1010 546 960 b 464 952 479 950 472 951 b 154 909 381 963 250 969 b 66 795 108 881 73 811 b 302 810 72 804 109 826 b 396 807 339 806 370 806 b 302 642 367 758 335 702 b 153 619 234 632 168 617 b 264 570 182 599 221 581 b 85 48 150 353 45 116 b 272 19 113 1 177 2 b 417 574 272 179 344 393 b 552 591 497 590 552 591 b 447 644 552 591 512 629 b 537 843 481 723 513 792 z "},"8":{"ha":478,"x_min":0,"x_max":0,"o":"m 324 940 b 173 565 263 918 83 775 b -34 131 121 516 -95 304 b 108 15 -16 78 28 35 b 304 55 185 -4 258 15 b 329 553 509 234 329 553 b 464 689 379 599 429 642 b 324 940 622 905 411 973 z m 251 219 b 61 208 228 99 90 88 b 216 449 40 293 168 404 b 251 219 257 342 265 293 z m 423 786 b 252 618 406 733 316 668 b 324 856 214 685 267 808 b 423 786 360 886 446 856 z "},"9":{"ha":500,"x_min":0,"x_max":0,"o":"m 506 853 b 101 844 392 999 196 985 b 294 511 -40 636 104 484 b 31 138 185 352 46 182 b 155 -6 7 70 -1 46 b 506 853 308 307 657 658 z m 358 611 b 257 821 219 640 198 771 b 416 800 312 869 380 865 b 358 611 436 766 407 695 z "},"\u0000":{"ha":0,"x_min":0,"x_max":0,"o":""},"\n":{"ha":0,"x_min":0,"x_max":0,"o":""},"\r":{"ha":0,"x_min":0,"x_max":0,"o":""}," ":{"ha":386,"x_min":0,"x_max":0,"o":""},"!":{"ha":297,"x_min":0,"x_max":0,"o":"m 195 900 b 21 250 95 799 -16 479 b 150 270 34 173 109 177 b 384 950 194 369 310 803 b 195 900 336 968 235 941 z m 6 116 b 36 2 -36 73 -12 8 b 115 78 83 -4 124 36 b 6 116 106 120 55 166 z "},"\"":{"ha":410,"x_min":0,"x_max":0,"o":"m 155 975 b 118 790 145 925 156 848 b 152 788 97 759 141 780 b 221 874 186 809 207 837 b 242 988 233 909 246 950 b 155 975 229 990 157 985 z m 372 988 b 285 975 359 990 287 985 b 248 790 275 925 286 848 b 282 788 227 759 271 780 b 351 874 316 809 337 837 b 372 988 364 909 376 950 z "},"#":{"ha":976,"x_min":0,"x_max":0,"o":"m 760 640 b 726 643 749 641 738 642 b 909 842 776 717 881 818 b 796 800 909 842 841 825 b 642 646 739 767 688 712 b 532 643 607 646 569 646 b 713 840 583 718 685 817 b 600 798 713 840 645 823 b 439 634 540 763 487 705 b 316 606 396 628 354 619 b 189 513 250 582 200 526 b 377 529 197 518 231 531 b 317 410 356 491 336 450 b 193 381 274 404 231 394 b 66 288 127 358 77 301 b 271 305 74 294 110 307 b 111 0 206 154 156 24 b 246 33 188 -1 209 6 b 376 301 293 67 330 175 b 405 300 385 301 395 301 b 463 298 426 299 445 298 b 308 2 401 151 352 26 b 443 34 385 0 406 7 b 571 300 489 68 526 175 b 789 416 737 312 728 367 b 637 416 768 407 722 409 b 615 417 630 416 622 417 b 660 523 629 453 644 488 b 912 640 861 530 847 589 b 760 640 891 632 845 634 z m 420 419 b 467 527 434 456 450 492 b 528 525 486 527 506 526 b 568 523 542 524 555 524 b 518 421 551 490 534 455 b 420 419 486 421 453 421 z m 187 510 b 189 513 187 510 187 511 b 187 510 187 511 187 510 z m 64 285 b 66 288 64 285 65 286 b 64 285 64 286 64 285 z "},"$":{"ha":728,"x_min":0,"x_max":0,"o":"m 763 983 b 603 920 763 983 680 961 b 550 949 584 935 564 945 b 483 947 523 957 502 955 b 486 949 484 947 485 948 l 486 949 b 204 610 337 919 220 716 b 255 430 193 538 219 479 b 218 342 242 400 230 371 b 104 385 185 380 148 381 b 152 181 99 359 118 268 b 36 -13 109 79 72 3 b 192 42 123 -15 149 16 b 214 63 200 47 207 54 b 293 4 238 31 264 8 b 520 110 401 -13 464 42 b 510 491 606 214 603 395 b 418 566 470 532 440 554 b 450 638 428 591 439 615 b 480 597 456 625 465 611 b 609 709 519 620 565 655 b 632 889 672 786 662 847 b 763 983 685 936 733 964 z m 450 838 b 527 869 475 863 508 877 b 352 634 461 812 403 728 b 450 838 320 716 421 809 z m 382 275 b 288 211 402 216 329 169 b 334 339 303 250 318 294 b 382 275 357 315 375 294 z "},"%":{"ha":799,"x_min":0,"x_max":0,"o":"m 763 945 b 633 897 763 945 685 926 b 36 0 334 732 153 61 b 197 37 123 -2 154 7 b 562 725 300 109 392 482 b 763 945 621 810 728 918 z m 276 574 b 391 773 315 599 394 683 b 259 849 389 848 319 872 b 122 631 191 823 106 736 b 276 574 138 526 242 552 z m 256 787 b 334 744 287 801 333 788 b 268 629 336 693 290 644 b 179 662 248 616 188 602 b 256 787 170 723 218 770 z m 575 503 b 395 208 491 474 383 358 b 577 111 407 57 534 83 b 730 381 625 142 727 254 b 575 503 732 489 649 529 z m 571 191 b 466 247 546 174 473 160 b 567 416 459 334 520 396 b 659 347 605 432 660 409 b 571 191 657 273 599 209 z "},"&":{"ha":1000,"x_min":0,"x_max":0,"o":"m 936 164 b 733 180 864 137 798 145 b 613 273 689 204 649 234 b 758 394 653 308 700 348 b 901 368 813 438 866 460 b 674 487 967 540 804 602 b 539 370 619 439 578 404 b 534 378 537 373 536 375 b 514 453 524 395 517 421 b 737 678 605 524 689 594 b 706 936 780 754 813 921 b 358 486 487 965 347 626 b 364 432 359 467 361 449 b 159 260 283 361 207 298 b 288 35 -6 128 48 -83 b 477 156 366 74 421 111 b 684 1 545 62 628 6 b 936 164 821 -12 942 116 z m 685 801 b 520 577 678 749 608 665 b 600 791 531 646 556 723 b 685 801 634 844 691 848 z m 356 203 b 289 262 265 117 224 194 b 383 349 318 293 350 321 b 417 259 392 317 404 287 b 356 203 398 242 378 224 z "},"'":{"ha":146,"x_min":0,"x_max":0,"o":"m 227 968 b 139 955 214 971 141 965 b 103 771 130 906 141 828 b 137 768 82 739 125 761 b 206 854 171 790 192 817 b 227 968 218 890 231 931 z "},"(":{"ha":414,"x_min":0,"x_max":0,"o":"m 340 937 b 42 22 200 839 -155 367 b 92 338 97 -75 60 173 b 286 712 132 538 204 618 b 340 937 359 796 350 835 z "},")":{"ha":497,"x_min":0,"x_max":0,"o":"m 554 964 b 383 869 511 979 389 925 b 128 124 349 591 320 366 b 305 240 -64 -118 229 138 b 554 964 382 342 572 695 z "},"*":{"ha":381,"x_min":0,"x_max":0,"o":"m 339 784 b 344 863 344 840 344 863 b 259 811 344 863 305 841 b 201 882 250 839 233 863 b 189 795 201 849 195 821 b 88 856 136 829 88 856 b 94 777 88 856 88 831 b 138 724 95 765 113 746 b 101 679 119 707 105 691 b 83 588 88 641 83 588 b 186 653 83 588 132 617 b 269 556 200 617 227 586 b 262 635 263 582 261 608 b 329 593 300 610 329 593 b 336 678 329 593 337 619 b 289 728 336 688 317 707 b 339 784 317 751 337 772 z "},"+":{"ha":364,"x_min":0,"x_max":0,"o":"m 335 371 b 295 441 335 371 324 394 b 231 465 289 452 263 459 b 220 524 231 495 229 518 b 144 569 172 559 144 569 b 133 474 144 569 138 525 b 36 476 81 476 36 476 b 70 394 36 476 42 447 b 128 375 75 385 98 379 b 143 307 129 342 133 316 b 206 258 185 273 206 258 b 223 370 206 258 216 311 b 335 371 282 369 335 371 z "},",":{"ha":151,"x_min":0,"x_max":0,"o":"m 61 135 b -26 122 48 138 -24 132 b -63 -63 -36 72 -25 -5 b -29 -65 -84 -94 -40 -72 b 40 21 5 -44 26 -16 b 61 135 53 56 65 97 z "},"-":{"ha":454,"x_min":0,"x_max":0,"o":"m 199 264 b 301 354 241 274 277 287 b 14 270 226 375 72 380 b 199 264 88 259 160 254 z "},".":{"ha":219,"x_min":0,"x_max":0,"o":"m 8 92 b 38 -21 -34 50 -10 -15 b 117 55 86 -27 126 12 b 8 92 108 97 58 142 z "},"=":{"ha":414,"x_min":0,"x_max":0,"o":"m 262 448 b 377 537 309 458 350 470 b 52 454 293 559 117 563 b 262 448 136 442 217 437 z m 36 276 b 246 269 120 264 201 259 b 362 359 294 280 334 292 b 36 276 277 381 102 385 z "},"?":{"ha":647,"x_min":0,"x_max":0,"o":"m 157 114 b 187 1 115 72 139 7 b 266 76 235 -6 276 34 b 157 114 257 118 207 164 z m 220 930 b 72 663 132 883 34 752 b 215 570 96 609 198 543 b 239 815 154 613 140 741 b 390 634 353 900 487 749 b 160 265 279 501 177 344 b 280 217 144 194 169 149 b 577 702 313 374 519 466 b 220 930 634 939 308 976 z "},"@":{"ha":613,"x_min":0,"x_max":0,"o":"m 628 773 b 58 628 517 1091 158 897 b 155 98 -64 300 43 161 b 445 205 224 58 376 77 b 473 299 465 243 473 274 b 440 413 475 333 466 385 b 359 418 420 435 385 432 b 356 578 270 368 270 567 b 417 499 402 585 410 530 b 416 622 431 550 434 584 b 300 642 397 665 352 680 b 204 364 227 590 181 459 b 321 319 223 288 272 288 b 351 330 333 327 343 331 b 255 239 348 290 319 239 b 196 583 144 238 106 377 b 511 709 285 788 453 811 b 502 402 589 575 502 402 b 628 773 502 402 690 593 z "},"A":{"ha":593,"x_min":0,"x_max":0,"o":"m 550 969 b -106 25 159 895 28 99 b 75 25 -91 -14 26 -1 b 180 272 131 55 155 151 b 233 411 187 305 205 375 b 336 489 249 432 293 468 b 249 27 329 302 249 27 b 503 19 249 27 254 19 b 550 969 434 470 462 718 z m 231 513 b 319 748 251 594 279 675 b 427 865 349 801 393 840 b 340 557 398 798 353 674 b 231 513 303 546 260 529 z "},"B":{"ha":503,"x_min":0,"x_max":0,"o":"m 483 729 b 528 850 510 763 533 805 b 484 933 525 882 507 911 b 352 967 448 966 400 981 b 279 939 327 960 302 952 b 169 833 234 913 198 875 b 94 681 137 786 113 734 b 43 504 73 623 57 564 b 8 326 30 445 19 386 b -21 171 -1 274 -10 222 b -54 61 -29 134 -38 95 b -82 24 -61 47 -69 33 b 59 9 -64 -5 8 -5 b 394 130 204 28 317 37 b 383 511 480 234 477 415 b 288 588 341 554 309 576 b 483 729 333 602 408 639 z m 333 411 b 93 133 375 246 211 165 b 173 585 124 210 146 467 b 333 411 234 509 310 498 z m 203 677 b 381 914 245 795 313 908 b 463 832 441 920 478 889 b 203 677 438 735 277 677 z "},"C":{"ha":586,"x_min":0,"x_max":0,"o":"m 546 337 b 223 192 408 203 319 105 b 448 825 39 359 322 738 b 668 868 574 913 668 868 b 556 938 668 868 644 937 b -20 380 393 938 45 647 b 123 40 -51 250 12 110 b 262 1 164 14 213 -5 b 492 189 361 14 433 118 b 546 337 525 230 543 323 z "},"D":{"ha":547,"x_min":0,"x_max":0,"o":"m 443 961 b 443 962 443 962 443 962 b 439 961 442 962 441 962 b 418 960 432 961 425 960 b 340 950 390 959 362 963 b -96 25 46 773 18 93 b -46 2 -99 23 -53 3 b 51 7 -15 -3 20 2 b 500 430 273 42 415 237 b 578 696 537 515 565 605 b 443 961 611 932 515 963 z m 171 261 b 275 742 191 406 206 591 b 331 832 288 770 309 802 b 516 798 398 908 517 912 b 171 261 515 553 307 360 z "},"E":{"ha":494,"x_min":0,"x_max":0,"o":"m 464 956 b 338 948 426 962 364 959 b 337 948 338 948 338 948 b 331 945 335 947 333 946 b -95 25 38 768 19 93 b 308 14 -79 -7 231 -6 b 390 191 420 42 379 161 b 269 140 401 222 354 176 b 149 136 237 126 192 128 b 215 548 176 239 183 396 b 401 543 278 558 335 527 b 499 686 476 561 499 686 b 369 678 499 686 460 667 b 306 683 343 681 323 683 b 251 678 282 683 265 681 b 276 742 258 700 267 721 b 333 831 290 772 311 803 b 503 824 391 837 436 809 b 608 967 584 842 608 967 b 464 956 608 967 561 941 z "},"F":{"ha":501,"x_min":0,"x_max":0,"o":"m 464 956 b 338 947 426 962 364 958 b 337 947 338 947 338 947 b 331 944 335 946 333 945 b -95 24 38 767 19 92 b 86 25 -75 -14 40 -2 b 215 547 176 76 166 316 b 401 542 278 557 335 527 b 499 685 476 561 499 685 b 369 678 499 685 460 667 b 306 682 343 681 323 682 b 251 678 282 683 265 681 b 276 741 258 699 267 720 b 333 831 290 771 311 802 b 503 824 391 837 436 809 b 608 966 584 842 608 966 b 464 956 608 966 561 940 z "},"G":{"ha":594,"x_min":0,"x_max":0,"o":"m 448 822 b 668 864 574 910 668 864 b 557 934 668 864 645 933 b -20 376 393 935 45 643 b 193 6 -57 223 39 47 b 226 1 204 3 215 1 b 373 44 278 -4 330 16 b 528 236 444 91 506 153 b 529 421 545 299 538 358 b 451 535 515 514 505 523 b 239 339 324 562 241 524 b 434 348 295 442 417 449 b 434 345 434 347 434 346 b 434 345 434 345 434 345 b 355 157 444 273 417 198 b 313 140 342 148 328 142 b 257 158 293 139 273 147 b 204 503 137 242 151 384 b 427 806 254 616 332 727 b 448 822 434 812 441 817 z "},"H":{"ha":581,"x_min":0,"x_max":0,"o":"m 546 948 b 467 860 525 934 491 900 b 371 582 423 789 392 686 b 342 572 362 577 352 575 b 204 513 293 558 233 532 b 272 741 219 592 240 670 b 449 969 315 835 428 956 l 449 969 b -99 24 67 894 26 99 b 82 25 -80 -14 36 -2 b 169 268 134 55 153 149 b 169 266 169 267 169 266 b 227 423 169 266 189 374 b 357 512 246 448 308 497 b 356 505 357 510 357 507 b 190 4 325 318 190 4 b 425 27 191 5 355 27 b 453 48 448 27 449 26 b 464 96 457 64 461 80 b 485 196 471 129 478 162 b 510 398 497 263 507 330 b 545 745 515 513 511 634 b 613 889 561 796 584 844 b 671 972 631 917 655 942 b 546 948 634 976 578 968 z "},"I":{"ha":340,"x_min":0,"x_max":0,"o":"m 336 963 b -90 43 43 785 23 110 b 91 43 -71 4 45 17 b 281 759 206 110 157 490 b 457 971 324 853 436 958 b 336 963 457 971 366 981 z "},"J":{"ha":588,"x_min":0,"x_max":0,"o":"m 584 963 b 207 119 338 815 285 315 b 142 582 124 181 50 329 b -19 415 53 559 6 482 b 183 25 -50 333 52 63 b 339 44 225 11 303 23 b 529 760 455 110 406 490 b 706 972 572 854 684 959 b 584 963 706 972 614 981 z "},"K":{"ha":649,"x_min":0,"x_max":0,"o":"m 580 928 b 234 639 466 881 314 690 b 272 743 244 675 257 710 b 449 970 315 836 428 957 l 449 970 b -99 26 67 896 26 100 b 82 26 -80 -13 36 0 b 208 533 169 77 163 307 b 210 530 209 532 209 531 b 310 22 257 480 167 88 b 494 18 400 -19 493 20 b 478 148 495 16 478 148 b 364 199 478 148 412 119 b 260 552 316 278 331 484 b 227 575 248 563 237 571 b 533 786 331 598 441 673 b 766 962 639 916 766 962 b 580 928 766 962 709 982 z "},"L":{"ha":458,"x_min":0,"x_max":0,"o":"m 279 749 b 455 961 322 843 433 948 b 334 952 455 961 363 970 b -92 32 41 775 21 100 b -79 19 -94 31 -80 20 b -55 11 -71 15 -63 12 b 10 8 -34 7 -11 9 b 179 -5 67 7 123 -4 b 321 26 228 -7 280 -3 b 323 27 322 26 322 27 b 412 231 413 94 408 161 b 141 107 336 177 232 129 b 279 749 191 247 180 533 z "},"M":{"ha":857,"x_min":0,"x_max":0,"o":"m 825 967 b 374 434 612 927 475 670 b 455 980 376 619 378 829 b 452 978 454 979 453 979 b -95 34 70 903 30 109 b 85 35 -76 -4 40 8 b 276 751 201 101 152 481 b 366 888 296 795 332 846 b 294 544 333 826 298 720 b 172 25 286 206 215 64 b 170 23 171 24 171 23 b 350 23 185 -16 301 -3 b 595 746 473 90 444 474 b 703 863 624 800 669 838 b 612 502 669 786 614 633 b 524 25 609 315 524 25 b 779 17 524 25 529 17 b 825 967 709 468 737 716 z "},"N":{"ha":686,"x_min":0,"x_max":0,"o":"m 572 766 b 415 283 488 591 521 471 b 416 331 416 298 417 314 b 454 971 406 536 376 794 b 448 968 452 970 450 969 b -99 24 67 893 26 99 b 82 25 -80 -14 36 -2 b 272 741 197 91 148 471 b 385 904 297 795 345 858 b 323 536 351 847 314 737 b 236 14 339 193 276 51 b 247 22 238 16 242 19 b 240 16 245 19 242 17 b 477 82 240 16 403 -15 b 788 965 657 321 534 662 b 572 766 734 954 624 875 z "},"O":{"ha":593,"x_min":0,"x_max":0,"o":"m 625 867 b 611 914 622 883 617 899 b 528 954 595 948 559 953 b 377 905 475 955 421 934 b 215 776 313 864 270 831 b 69 597 161 723 110 662 b 0 199 -2 484 -54 332 b 167 34 31 121 92 61 b 284 28 202 21 247 12 b 434 177 351 57 394 115 b 542 409 480 249 512 328 b 628 813 589 538 624 674 b 625 867 629 831 628 849 z m 548 789 b 432 460 527 672 485 564 b 368 359 416 427 396 384 b 298 327 350 343 324 324 b 202 481 233 335 194 416 b 252 625 208 533 223 583 b 547 855 378 809 531 917 b 551 826 550 846 551 836 b 548 789 551 814 550 801 z "},"P":{"ha":499,"x_min":0,"x_max":0,"o":"m 468 954 b 431 957 457 957 443 957 b 333 947 402 958 353 959 b -93 27 40 769 20 94 b 87 27 -74 -12 42 1 b 213 532 175 77 168 307 b 333 572 258 546 299 561 l 333 572 b 528 714 378 587 454 623 b 468 954 640 850 519 939 z m 509 817 b 249 662 484 719 322 662 b 426 899 291 780 358 892 b 509 817 486 904 523 873 z "},"Q":{"ha":608,"x_min":0,"x_max":0,"o":"m 542 412 b 628 816 589 540 624 677 b 625 870 629 834 628 852 b 611 917 622 886 617 902 b 528 957 595 950 559 956 b 377 908 475 958 421 937 b 215 779 313 867 270 834 b 69 600 161 725 110 665 b 0 201 -2 487 -54 335 b 167 37 31 124 92 64 b 284 31 202 24 247 15 b 368 92 317 45 345 66 b 396 41 382 80 394 64 b 522 -241 408 -102 477 -216 b 620 -79 541 -215 601 -121 b 412 111 520 -74 477 68 b 394 122 406 115 400 119 b 434 180 408 140 421 160 b 542 412 480 252 512 331 z m 368 362 b 298 330 350 345 324 326 b 202 483 233 338 194 419 b 252 628 208 536 223 585 b 547 858 378 812 531 920 b 551 829 550 848 551 839 b 548 791 551 816 550 804 b 432 463 527 675 485 567 b 368 362 416 430 396 386 z "},"R":{"ha":592,"x_min":0,"x_max":0,"o":"m 527 712 b 561 872 564 757 588 817 b 475 948 543 908 512 936 b 412 957 455 954 433 957 b 346 949 390 958 367 956 b 295 921 327 944 309 934 b 249 876 279 906 263 892 b 175 770 220 844 196 808 b 117 645 153 730 134 688 b 70 510 99 601 84 555 b 32 374 56 465 44 419 b -1 247 21 332 10 290 b -32 140 -10 211 -20 176 b -63 62 -40 113 -50 87 b -95 25 -71 48 -81 34 b 86 26 -75 -13 40 -1 b 212 530 173 76 167 305 b 219 533 214 531 216 532 b 230 519 222 528 225 524 b 330 11 276 469 187 77 b 513 7 419 -30 512 9 b 497 137 514 5 497 137 b 383 188 497 137 431 108 b 279 541 335 267 350 473 b 270 550 276 544 273 547 b 332 571 292 557 313 565 l 332 571 b 527 712 377 585 452 622 z m 247 660 b 425 897 289 778 357 891 b 507 815 485 903 522 872 b 247 660 482 718 321 660 z "},"S":{"ha":508,"x_min":0,"x_max":0,"o":"m 326 738 b 357 615 318 714 307 659 b 486 727 396 638 441 673 b 426 967 599 864 478 952 b 360 965 400 975 379 973 b 362 967 361 965 362 966 l 362 967 b 81 628 214 937 97 734 b 258 293 55 459 235 361 b 146 261 282 223 178 170 b -20 403 99 397 48 397 b 170 22 -29 352 55 40 b 397 128 278 5 341 60 b 386 509 483 232 480 413 b 291 586 344 552 313 574 l 291 586 b 327 856 135 678 289 818 b 419 846 366 895 425 909 b 326 738 415 812 368 770 z "},"T":{"ha":608,"x_min":0,"x_max":0,"o":"m 43 769 b 41 765 41 767 41 765 b 43 769 41 765 42 766 z m 540 947 b 146 903 445 965 257 972 b 43 769 92 869 52 788 b 286 789 51 779 90 803 b 0 17 122 525 92 72 b 181 17 19 -22 135 -9 b 371 733 296 84 247 464 b 399 783 378 750 388 767 b 725 953 609 784 669 875 b 540 947 694 932 635 928 z "},"U":{"ha":625,"x_min":0,"x_max":0,"o":"m 511 954 b 310 198 511 954 377 379 b 135 229 249 30 107 75 b 176 967 162 383 350 926 b 48 106 150 743 -141 324 b 468 190 227 -101 405 66 b 723 951 520 294 580 834 b 511 954 653 952 511 954 z "},"V":{"ha":639,"x_min":0,"x_max":0,"o":"m 399 776 b 189 345 308 609 296 502 b 299 955 213 546 191 785 b 84 520 276 947 134 863 b -99 5 35 178 -52 42 b 175 92 -94 8 98 10 b 755 943 372 302 545 864 b 399 776 702 970 510 978 z "},"W":{"ha":753,"x_min":0,"x_max":0,"o":"m 673 916 b 429 234 566 810 563 515 b 311 88 392 156 298 73 b 363 178 333 115 350 146 b 386 277 375 210 382 243 b 399 388 392 313 395 351 b 418 518 404 431 409 475 b 449 643 426 560 437 602 b 428 616 442 636 435 624 b 383 564 413 598 397 582 b 346 512 370 547 358 529 b 265 388 318 471 291 429 b 176 256 236 343 207 299 b 166 242 173 251 169 247 b 155 228 162 237 157 233 b 180 311 167 253 175 281 b 292 945 209 516 180 768 b 78 510 269 937 128 852 b -106 -5 28 167 -59 32 b -86 5 -102 -3 -95 0 b -89 3 -88 4 -89 3 b 268 227 -89 3 128 50 b 211 2 259 168 248 100 b 856 934 602 76 723 859 b 673 916 841 972 713 955 z "},"X":{"ha":640,"x_min":0,"x_max":0,"o":"m 455 221 b 341 574 415 298 402 501 b 439 746 369 633 401 692 b 665 958 504 840 641 945 b 542 950 665 958 576 968 b 353 786 473 913 410 855 b 211 966 346 938 211 966 b 113 957 211 966 178 961 b 242 628 229 923 251 770 b -103 30 87 374 -19 74 b 78 30 -93 -9 25 4 b 299 475 168 76 216 270 b 385 44 302 342 279 95 b 568 40 470 3 567 43 b 564 170 569 38 564 170 b 455 221 564 170 495 141 z "},"Y":{"ha":565,"x_min":0,"x_max":0,"o":"m 526 958 b 421 878 484 943 444 901 b 309 745 383 841 346 796 b 165 963 299 917 165 963 b 70 959 165 963 135 963 b 199 572 237 911 236 690 b -70 0 62 335 -45 69 b 141 29 41 37 90 3 b 452 738 269 96 305 499 b 551 861 477 779 513 829 b 693 973 594 898 677 965 l 693 973 b 526 958 658 966 559 969 z "},"Z":{"ha":608,"x_min":0,"x_max":0,"o":"m 721 953 b 705 958 719 953 708 957 b 677 961 696 959 687 960 b 615 963 657 964 636 963 b 388 970 540 966 464 978 b 234 923 333 965 281 951 b 145 808 187 895 153 825 b 381 823 152 817 188 840 b 387 823 383 823 385 823 b 365 786 379 812 372 799 b 82 259 256 587 260 473 b -108 36 9 172 -84 49 b -87 34 -105 38 -90 34 b -53 33 -75 34 -64 33 b 17 28 -29 31 -6 30 b 384 49 133 18 282 -27 b 501 318 503 137 496 226 b 194 167 415 256 301 200 b 721 953 370 410 530 882 z m 145 808 b 143 805 143 806 143 805 b 145 808 143 805 144 806 z "}," ":{"ha":386,"x_min":0,"x_max":0,"o":""},"¡":{"ha":594,"x_min":0,"x_max":0,"o":"m 322 708 b 41 57 124 479 12 159 b 195 7 52 17 134 -11 b 437 687 224 155 411 588 b 322 708 460 780 389 785 z m 510 955 b 400 842 457 949 388 884 b 536 880 415 792 497 837 b 510 955 574 922 562 961 z "},"£":{"ha":529,"x_min":0,"x_max":0,"o":"m 563 588 b 406 603 511 579 450 596 b 363 610 392 605 377 607 b 407 734 375 652 389 694 b 584 946 450 828 562 933 b 462 937 584 946 492 955 b 243 625 362 876 294 758 b 206 626 231 626 218 626 b 82 588 165 625 119 614 b 48 562 70 580 59 571 b 36 550 44 559 40 555 b 57 555 43 552 50 554 b 113 561 76 558 94 560 b 196 556 138 563 174 559 b 217 551 203 554 210 553 b 36 17 138 313 104 58 b 50 4 34 16 49 4 b 74 -4 57 0 65 -3 b 139 -7 95 -9 117 -6 b 308 -21 195 -8 251 -19 b 562 223 481 -24 557 125 b 269 92 486 169 361 114 b 340 512 304 187 309 350 b 563 588 416 499 494 541 z "},"¥":{"ha":744,"x_min":0,"x_max":0,"o":"m 799 960 b 632 944 764 953 665 956 b 559 896 606 935 580 916 b 359 884 493 896 423 892 b 272 950 318 933 272 950 b 176 946 272 950 241 950 b 280 871 223 932 256 905 b 147 823 226 860 180 844 b 307 816 202 820 256 817 b 305 559 336 731 327 628 b 36 -13 168 322 61 56 b 247 16 147 23 196 -10 b 558 725 375 82 411 486 b 634 826 578 758 605 796 b 783 887 694 835 745 850 b 712 893 762 889 738 891 b 799 959 750 923 789 954 z m 399 814 b 480 814 428 813 455 813 b 415 732 458 789 436 761 b 399 814 413 763 407 790 z "},"­":{"ha":0,"x_min":0,"x_max":0,"o":""},"°":{"ha":136,"x_min":0,"x_max":0,"o":"m 33 968 b -35 858 -1 955 -43 911 b 42 829 -27 805 25 818 b 100 929 62 842 102 884 b 33 968 99 967 64 979 z m 38 857 b -7 874 28 851 -2 843 b 32 937 -11 904 13 928 b 72 915 48 943 71 937 b 38 857 72 889 49 865 z "},"¿":{"ha":646,"x_min":0,"x_max":0,"o":"m 568 946 b 475 871 521 952 474 913 b 578 833 477 829 519 783 b 568 946 627 875 615 940 z m 440 377 b 372 132 493 334 485 206 b 253 313 244 47 137 197 b 549 682 388 446 518 602 b 437 729 577 753 560 797 b 55 245 376 573 154 481 b 371 17 -44 8 275 -29 b 566 283 467 64 589 195 b 440 377 552 338 462 404 z "},"À":{"ha":593,"x_min":0,"x_max":0,"o":"m -107 24 b 74 25 -92 -14 25 -2 b 178 272 130 55 154 151 b 232 411 186 305 204 374 b 335 489 248 432 292 468 b 248 27 328 302 248 27 b 502 19 248 27 253 19 b 549 969 433 469 460 718 b -107 24 158 894 26 99 z m 339 557 b 229 513 301 546 259 528 b 318 747 250 593 278 674 b 426 865 348 801 392 839 b 339 557 397 798 352 674 z m 549 981 b 419 1124 549 1057 448 1057 b 549 981 433 1070 418 1015 z "},"Á":{"ha":628,"x_min":0,"x_max":0,"o":"m -107 24 b 74 25 -92 -14 25 -2 b 178 272 130 55 154 151 b 232 411 186 305 204 374 b 335 489 248 432 292 468 b 248 27 328 302 248 27 b 502 19 248 27 253 19 b 549 969 433 469 460 718 b -107 24 158 894 26 99 z m 339 557 b 229 513 301 546 259 528 b 318 747 250 593 278 674 b 426 865 348 801 392 839 b 339 557 397 798 352 674 z m 584 1134 b 402 962 543 1048 403 1066 b 584 1134 533 996 570 1081 z "},"Â":{"ha":632,"x_min":0,"x_max":0,"o":"m -107 24 b 74 25 -92 -14 25 -2 b 178 272 130 55 154 151 b 232 411 186 305 204 374 b 335 489 248 432 292 468 b 248 27 328 302 248 27 b 502 19 248 27 253 19 b 549 969 433 469 460 718 b -107 24 158 894 26 99 z m 339 557 b 229 513 301 546 259 528 b 318 747 250 593 278 674 b 426 865 348 801 392 839 b 339 557 397 798 352 674 z m 549 1064 b 549 977 543 1029 544 1007 b 589 1110 564 1023 578 1059 b 376 948 527 1098 406 1029 b 549 1064 433 1009 489 1021 z "},"Ã":{"ha":642,"x_min":0,"x_max":0,"o":"m -107 24 b 74 25 -92 -14 25 -2 b 178 272 130 55 154 151 b 232 411 186 305 204 374 b 335 489 248 432 292 468 b 248 27 328 302 248 27 b 502 19 248 27 253 19 b 549 969 433 469 460 718 b -107 24 158 894 26 99 z m 339 557 b 229 513 301 546 259 528 b 318 747 250 593 278 674 b 426 865 348 801 392 839 b 339 557 397 798 352 674 z m 357 1028 b 513 1025 419 1022 480 1019 b 598 1076 548 1031 578 1038 b 357 1028 536 1089 406 1091 z "},"Ä":{"ha":633,"x_min":0,"x_max":0,"o":"m -107 24 b 74 25 -92 -14 25 -2 b 178 272 130 55 154 151 b 232 411 186 305 204 374 b 335 489 248 432 292 468 b 248 27 328 302 248 27 b 502 19 248 27 253 19 b 549 969 433 469 460 718 b -107 24 158 894 26 99 z m 339 557 b 229 513 301 546 259 528 b 318 747 250 593 278 674 b 426 865 348 801 392 839 b 339 557 397 798 352 674 z m 418 1018 b 459 1057 443 1015 464 1035 b 403 1076 454 1078 429 1102 b 418 1018 382 1054 394 1021 z m 590 1057 b 534 1076 585 1078 559 1102 b 549 1018 512 1054 525 1021 b 590 1057 574 1015 594 1035 z "},"Å":{"ha":642,"x_min":0,"x_max":0,"o":"m -107 24 b 74 25 -92 -14 25 -2 b 178 272 130 55 154 151 b 232 411 186 305 204 374 b 335 489 248 432 292 468 b 248 27 328 302 248 27 b 502 19 248 27 253 19 b 549 969 433 469 460 718 b -107 24 158 894 26 99 z m 339 557 b 229 513 301 546 259 528 b 318 747 250 593 278 674 b 426 865 348 801 392 839 b 339 557 397 798 352 674 z m 550 1125 b 500 1046 525 1116 494 1084 b 556 1025 506 1007 544 1017 b 598 1097 570 1034 599 1065 b 550 1125 597 1125 572 1133 z m 553 1045 b 521 1057 546 1040 524 1035 b 549 1103 517 1079 535 1097 b 577 1087 560 1108 577 1103 b 553 1045 578 1068 561 1050 z "},"Ç":{"ha":583,"x_min":0,"x_max":0,"o":"m 444 831 b 664 873 570 919 664 873 b 553 943 664 873 641 943 b -23 386 390 944 41 652 b 67 85 -43 305 -16 151 b 210 8 122 41 168 16 b 179 -18 198 0 187 -9 b 110 -133 143 -60 168 -103 b 255 -59 66 -156 225 -132 b 280 11 265 -34 271 -8 b 488 194 348 30 409 98 b 543 343 522 235 540 328 b 220 198 404 208 316 111 b 444 831 35 365 319 743 z "},"È":{"ha":494,"x_min":0,"x_max":0,"o":"m 462 956 b 336 948 424 962 363 959 b 336 948 336 948 336 948 b 330 945 334 947 332 946 b -96 25 37 768 17 93 b 306 14 -80 -7 230 -6 b 389 191 419 42 378 161 b 268 140 400 222 353 176 b 148 136 236 126 191 128 b 214 548 175 239 182 396 b 399 543 276 558 334 527 b 498 686 475 561 498 686 b 367 678 498 686 459 667 b 304 683 342 681 321 683 b 250 678 281 683 264 681 b 275 742 257 700 266 721 b 332 831 289 772 309 803 b 502 824 390 837 434 809 b 607 967 583 842 607 967 b 462 956 607 967 559 941 z m 592 1006 b 462 1149 592 1082 491 1082 b 592 1006 476 1095 461 1039 z "},"É":{"ha":514,"x_min":0,"x_max":0,"o":"m 462 956 b 336 948 424 962 363 959 b 336 948 336 948 336 948 b 330 945 334 947 332 946 b -96 25 37 768 17 93 b 306 14 -80 -7 230 -6 b 389 191 419 42 378 161 b 268 140 400 222 353 176 b 148 136 236 126 191 128 b 214 548 175 239 182 396 b 399 543 276 558 334 527 b 498 686 475 561 498 686 b 367 678 498 686 459 667 b 304 683 342 681 321 683 b 250 678 281 683 264 681 b 275 742 257 700 266 721 b 332 831 289 772 309 803 b 502 824 390 837 434 809 b 607 967 583 842 607 967 b 462 956 607 967 559 941 z m 627 1159 b 445 987 586 1073 446 1091 b 627 1159 576 1021 613 1105 z "},"Ê":{"ha":518,"x_min":0,"x_max":0,"o":"m 462 956 b 336 948 424 962 363 959 b 336 948 336 948 336 948 b 330 945 334 947 332 946 b -96 25 37 768 17 93 b 306 14 -80 -7 230 -6 b 389 191 419 42 378 161 b 268 140 400 222 353 176 b 148 136 236 126 191 128 b 214 548 175 239 182 396 b 399 543 276 558 334 527 b 498 686 475 561 498 686 b 367 678 498 686 459 667 b 304 683 342 681 321 683 b 250 678 281 683 264 681 b 275 742 257 700 266 721 b 332 831 289 772 309 803 b 502 824 390 837 434 809 b 607 967 583 842 607 967 b 462 956 607 967 559 941 z m 592 1089 b 592 1002 586 1053 587 1032 b 632 1135 607 1048 621 1083 b 419 972 570 1122 449 1053 b 592 1089 477 1033 532 1046 z "},"Ë":{"ha":494,"x_min":0,"x_max":0,"o":"m 462 956 b 336 948 424 962 363 959 b 336 948 336 948 336 948 b 330 945 334 947 332 946 b -96 25 37 768 17 93 b 306 14 -80 -7 230 -6 b 389 191 419 42 378 161 b 268 140 400 222 353 176 b 148 136 236 126 191 128 b 214 548 175 239 182 396 b 399 543 276 558 334 527 b 498 686 475 561 498 686 b 367 678 498 686 459 667 b 304 683 342 681 321 683 b 250 678 281 683 264 681 b 275 742 257 700 266 721 b 332 831 289 772 309 803 b 502 824 390 837 434 809 b 607 967 583 842 607 967 b 462 956 607 967 559 941 z m 430 1017 b 470 1056 454 1014 475 1034 b 414 1075 465 1077 440 1101 b 430 1017 393 1054 405 1020 z m 560 1017 b 601 1056 585 1014 605 1034 b 545 1075 596 1077 570 1101 b 560 1017 523 1054 536 1020 z "},"Ì":{"ha":360,"x_min":0,"x_max":0,"o":"m 335 944 b -90 24 42 767 23 92 b 90 25 -71 -14 44 -2 b 280 741 206 91 157 471 b 457 953 324 835 435 940 b 335 944 457 953 365 962 z m 476 1000 b 346 1143 476 1076 375 1076 b 476 1000 360 1089 345 1034 z "},"Í":{"ha":433,"x_min":0,"x_max":0,"o":"m 335 944 b -90 24 42 767 23 92 b 90 25 -71 -14 44 -2 b 280 741 206 91 157 471 b 457 953 324 835 435 940 b 335 944 457 953 365 962 z m 367 981 b 549 1153 498 1015 535 1099 b 367 981 508 1067 368 1085 z "},"Î":{"ha":439,"x_min":0,"x_max":0,"o":"m 335 944 b -90 24 42 767 23 92 b 90 25 -71 -14 44 -2 b 280 741 206 91 157 471 b 457 953 324 835 435 940 b 335 944 457 953 365 962 z m 342 966 b 514 1083 399 1027 455 1040 b 514 996 508 1048 510 1026 b 554 1129 529 1042 544 1078 b 342 966 493 1117 371 1048 z "},"Ï":{"ha":408,"x_min":0,"x_max":0,"o":"m 335 944 b -90 24 42 767 23 92 b 90 25 -71 -14 44 -2 b 280 741 206 91 157 471 b 457 953 324 835 435 940 b 335 944 457 953 365 962 z m 352 1011 b 392 1050 376 1008 397 1029 b 337 1069 388 1072 362 1095 b 352 1011 315 1048 328 1015 z m 523 1050 b 467 1069 518 1072 493 1095 b 483 1011 446 1048 458 1015 b 523 1050 507 1008 528 1029 z "},"Ñ":{"ha":686,"x_min":0,"x_max":0,"o":"m 533 1038 b 575 1035 545 1038 563 1037 b 644 1013 599 1030 620 1018 b 759 1051 683 1005 723 1026 b 680 1058 733 1046 702 1055 b 579 1070 647 1063 614 1071 b 517 1051 559 1070 536 1064 b 500 1038 511 1047 505 1043 b 494 1032 498 1036 496 1034 b 504 1035 497 1033 501 1034 b 533 1038 514 1036 523 1037 z m 571 766 b 414 283 487 591 519 471 b 415 331 415 299 416 314 b 453 971 405 536 375 794 b 447 969 451 970 449 969 b -100 24 66 893 25 99 b 81 25 -81 -14 35 -2 b 271 741 196 91 147 471 b 384 904 296 795 343 858 b 322 536 350 847 312 737 b 234 14 338 193 274 51 b 246 22 237 16 241 19 b 239 16 243 19 241 17 b 475 82 239 16 402 -15 b 786 965 655 321 533 662 b 571 766 733 954 623 875 z "},"Ò":{"ha":629,"x_min":0,"x_max":0,"o":"m 609 895 b 526 935 593 928 557 934 b 376 886 474 936 420 915 b 213 757 312 845 268 812 b 68 578 160 703 109 643 b -2 179 -3 465 -55 313 b 165 15 29 101 91 42 b 283 8 201 2 246 -8 b 433 158 350 38 393 95 b 540 390 479 230 511 309 b 627 794 588 518 623 655 b 624 848 628 812 627 830 b 609 895 621 864 616 880 z m 547 769 b 431 441 526 653 483 545 b 367 339 415 408 395 364 b 297 307 348 323 323 304 b 201 461 232 316 193 397 b 251 606 207 514 222 563 b 546 835 377 790 529 898 b 550 807 548 826 550 816 b 547 769 550 794 549 782 z m 664 989 b 535 1133 664 1066 564 1066 b 664 989 549 1079 533 1023 z "},"Ó":{"ha":664,"x_min":0,"x_max":0,"o":"m 609 895 b 526 935 593 928 557 934 b 376 886 474 936 420 915 b 213 757 312 845 268 812 b 68 578 160 703 109 643 b -2 179 -3 465 -55 313 b 165 15 29 101 91 42 b 283 8 201 2 246 -8 b 433 158 350 38 393 95 b 540 390 479 230 511 309 b 627 794 588 518 623 655 b 624 848 628 812 627 830 b 609 895 621 864 616 880 z m 547 769 b 431 441 526 653 483 545 b 367 339 415 408 395 364 b 297 307 348 323 323 304 b 201 461 232 316 193 397 b 251 606 207 514 222 563 b 546 835 377 790 529 898 b 550 807 548 826 550 816 b 547 769 550 794 549 782 z m 517 971 b 699 1143 648 1005 685 1089 b 517 971 658 1057 518 1074 z "},"Ô":{"ha":668,"x_min":0,"x_max":0,"o":"m 609 895 b 526 935 593 928 557 934 b 376 886 474 936 420 915 b 213 757 312 845 268 812 b 68 578 160 703 109 643 b -2 179 -3 465 -55 313 b 165 15 29 101 91 42 b 283 8 201 2 246 -8 b 433 158 350 38 393 95 b 540 390 479 230 511 309 b 627 794 588 518 623 655 b 624 848 628 812 627 830 b 609 895 621 864 616 880 z m 547 769 b 431 441 526 653 483 545 b 367 339 415 408 395 364 b 297 307 348 323 323 304 b 201 461 232 316 193 397 b 251 606 207 514 222 563 b 546 835 377 790 529 898 b 550 807 548 826 550 816 b 547 769 550 794 549 782 z m 491 956 b 664 1073 549 1017 605 1030 b 664 986 658 1037 659 1015 b 704 1118 679 1032 694 1067 b 491 956 643 1106 521 1037 z "},"Õ":{"ha":646,"x_min":0,"x_max":0,"o":"m 609 895 b 526 935 593 928 557 934 b 376 886 474 936 420 915 b 213 757 312 845 268 812 b 68 578 160 703 109 643 b -2 179 -3 465 -55 313 b 165 15 29 101 91 42 b 283 8 201 2 246 -8 b 433 158 350 38 393 95 b 540 390 479 230 511 309 b 627 794 588 518 623 655 b 624 848 628 812 627 830 b 609 895 621 864 616 880 z m 547 769 b 431 441 526 653 483 545 b 367 339 415 408 395 364 b 297 307 348 323 323 304 b 201 461 232 316 193 397 b 251 606 207 514 222 563 b 546 835 377 790 529 898 b 550 807 548 826 550 816 b 547 769 550 794 549 782 z m 441 1011 b 596 1008 503 1005 563 1002 b 682 1059 632 1014 661 1021 b 441 1011 619 1072 489 1074 z "},"Ö":{"ha":638,"x_min":0,"x_max":0,"o":"m 609 895 b 526 935 593 928 557 934 b 376 886 474 936 420 915 b 213 757 312 845 268 812 b 68 578 160 703 109 643 b -2 179 -3 465 -55 313 b 165 15 29 101 91 42 b 283 8 201 2 246 -8 b 433 158 350 38 393 95 b 540 390 479 230 511 309 b 627 794 588 518 623 655 b 624 848 628 812 627 830 b 609 895 621 864 616 880 z m 547 769 b 431 441 526 653 483 545 b 367 339 415 408 395 364 b 297 307 348 323 323 304 b 201 461 232 316 193 397 b 251 606 207 514 222 563 b 546 835 377 790 529 898 b 550 807 548 826 550 816 b 547 769 550 794 549 782 z m 502 1001 b 542 1040 526 998 547 1018 b 487 1059 538 1061 512 1085 b 502 1001 465 1037 477 1004 z m 673 1040 b 617 1059 668 1061 643 1085 b 632 1001 596 1037 608 1004 b 673 1040 657 998 677 1018 z "},"Ù":{"ha":624,"x_min":0,"x_max":0,"o":"m 510 946 b 309 190 510 946 376 371 b 134 221 247 22 106 67 b 175 959 161 375 349 918 b 47 98 148 735 -142 316 b 466 182 226 -109 404 58 b 722 943 518 286 579 825 b 510 946 652 944 510 946 z m 517 969 b 388 1113 517 1046 417 1046 b 517 969 402 1059 387 1003 z "},"Ú":{"ha":624,"x_min":0,"x_max":0,"o":"m 510 946 b 309 190 510 946 376 371 b 134 221 247 22 106 67 b 175 959 161 375 349 918 b 47 98 148 735 -142 316 b 466 182 226 -109 404 58 b 722 943 518 286 579 825 b 510 946 652 944 510 946 z m 552 1123 b 371 951 511 1037 372 1054 b 552 1123 501 985 538 1069 z "},"Û":{"ha":624,"x_min":0,"x_max":0,"o":"m 510 946 b 309 190 510 946 376 371 b 134 221 247 22 106 67 b 175 959 161 375 349 918 b 47 98 148 735 -142 316 b 466 182 226 -109 404 58 b 722 943 518 286 579 825 b 510 946 652 944 510 946 z m 517 1085 b 517 998 512 1049 513 1027 b 557 1130 533 1044 547 1079 b 345 968 496 1118 375 1049 b 517 1085 402 1029 458 1042 z "},"Ü":{"ha":624,"x_min":0,"x_max":0,"o":"m 510 946 b 309 190 510 946 376 371 b 134 221 247 22 106 67 b 175 959 161 375 349 918 b 47 98 148 735 -142 316 b 466 182 226 -109 404 58 b 722 943 518 286 579 825 b 510 946 652 944 510 946 z m 355 1013 b 396 1052 380 1010 400 1030 b 340 1071 391 1073 365 1097 b 355 1013 319 1049 331 1016 z m 486 1013 b 526 1052 510 1010 531 1030 b 471 1071 522 1073 496 1097 b 486 1013 449 1049 461 1016 z "},"“":{"ha":278,"x_min":0,"x_max":0,"o":"m 224 981 b 179 871 198 945 186 905 b 202 788 172 835 178 808 b 240 790 210 780 244 759 b 311 967 233 845 292 920 b 224 981 314 977 240 983 z m 84 982 b 39 873 57 946 46 906 b 62 789 31 836 38 810 b 100 791 70 782 104 760 b 170 969 93 846 151 921 b 84 982 174 978 99 985 z "},"€":{"ha":694,"x_min":0,"x_max":0,"o":"m 510 830 b 730 873 636 918 730 873 b 618 942 730 873 706 942 b 245 717 525 943 372 848 b 136 680 208 714 170 703 b 103 654 125 672 114 663 b 91 642 98 650 95 646 b 112 647 98 644 105 646 b 168 653 130 650 149 652 b 188 653 174 653 181 654 b 42 385 119 569 64 476 b 132 85 23 305 50 151 b 554 194 320 -67 404 11 b 608 342 587 235 605 328 b 285 197 470 208 381 110 b 327 624 173 299 234 479 b 389 605 347 617 368 610 b 618 680 466 589 547 631 b 461 694 566 671 504 687 b 386 707 436 698 411 703 b 510 830 431 762 476 807 z "},"₱":{"ha":706,"x_min":0,"x_max":0,"o":"m 761 840 b 699 847 743 843 722 845 b 597 947 683 903 628 938 b 561 950 586 951 572 951 b 462 940 532 952 482 952 b 343 825 416 912 377 873 b 210 757 289 810 242 788 b 298 750 240 754 269 752 b 36 20 155 483 123 72 b 217 21 55 -19 171 -6 b 342 525 304 71 297 300 b 463 566 387 539 428 554 l 462 566 b 657 707 508 580 583 617 b 700 785 680 735 694 761 b 761 840 723 797 744 815 z m 555 892 b 638 851 598 896 630 881 b 483 848 589 853 536 853 b 555 892 506 874 531 890 z m 378 655 b 416 745 389 686 402 717 b 566 750 476 744 528 745 b 608 757 580 752 594 754 b 378 655 552 692 437 655 z "}}}
